<svg viewBox="0 0 460 201" xmlns="http://www.w3.org/2000/svg" xml:space="preserve" style="fill-rule:evenodd;clip-rule:evenodd;stroke-linejoin:round;stroke-miterlimit:2"><path d="M0-20.465c-1.897 0-2.343 1.279-2.343 2.781v16.182c0 4.227 1.618 9.287 9.318 9.287 7.7 0 9.318-5.06 9.318-10.01v-10.844c0-2.836 1.45-4.782 4.742-4.782 3.683 0 5.134 1.946 5.134 4.782V.945c0 3.67 2.566 6.84 7.756 6.84 3.682 0 6.081-1.39 6.863-2.725h.334c.782 1.335 3.292 2.447 5.803 2.447h18.636c6.529 0 10.992-3.337 10.992-11.011 0-5.06-2.566-8.119-6.918-9.231v-.334c3.292-.89 5.245-3.336 5.245-7.062 0-4.894-3.46-8.119-9.319-8.119H51.333c-1.172 0-1.674.778-1.674 2.001v21.855c0 1.224.224 2.781 2.232 2.781 1.953 0 2.399-1.223 2.399-3.17V-24.08h10.602c3.85 0 5.245 1.613 5.245 4.338s-1.172 4.894-5.245 4.894h-2.678c-1.674 0-2.176.945-2.176 1.946 0 1.057.39 1.946 2.231 1.946h2.567c4.854 0 6.417 2.837 6.417 7.452 0 4.616-1.897 6.84-6.64 6.84H48.878c-3.682 0-5.914-1.279-5.914-4.226v-11.178c0-1.724-.447-2.78-2.288-2.78-1.897 0-2.343 1.279-2.343 2.78V.055c0 2.113-1.228 4.06-3.795 4.06-2.566 0-3.738-1.947-3.738-4.06v-14.236c0-4.226-2.79-7.341-9.765-7.341-6.584 0-9.373 3.115-9.373 7.341V-.946c0 3.504-2.009 5.061-4.687 5.061-2.679 0-4.687-1.557-4.687-5.061v-16.738c0-1.28-.447-2.781-2.288-2.781M99.423 2.78h.335c1.953 1.335 7.923 4.838 14.34 4.838 8.202 0 13.559-4.004 13.559-9.565 0-9.453-18.414-6.951-18.414-12.29 0-2.168 2.177-3.058 5.469-3.058 3.515 0 5.914.945 7.309 1.168 2.232.333 2.901-1.113 2.901-2.28 0-1.947-3.738-3.115-10.155-3.115-3.738 0-10.657.946-10.657 7.452 0 10.177 18.413 6.395 18.413 12.735 0 3.392-3.069 4.727-6.974 4.727-5.134 0-11.774-2.28-15.066-5.172v-15.904c0-1.558-.669-2.781-2.455-2.781-1.841 0-2.399 1.223-2.399 2.781v16.071c0 2.28-1.395 5.728-5.524 5.728-4.185 0-5.524-2.781-5.524-5.061v-11.122c0-1.557-.446-2.78-2.399-2.78-2.009 0-2.455 1.223-2.455 2.78v10.566c0 4.227 2.678 9.287 10.378 9.287 4.52 0 7.7-1.891 9.318-5.005" style="fill:#fff;fill-rule:nonzero" transform="translate(8.281 99.884) scale(3.53569)"/><path d="M0 6.073c1.63 0 3.047-1.342 3.047-3.037C3.047 1.412 1.63 0 0 0c-1.701 0-3.047 1.412-3.047 3.036A3.02 3.02 0 0 0 0 6.073" style="fill:#fff;fill-rule:nonzero" transform="translate(152.297 14.234) scale(3.53569)"/><text x="245.883" y="82.383" style="font-family:'ArialMT','Arial',sans-serif;font-size:13.406px;fill:#fff" transform="translate(-830.89 -100.589) scale(3.53569)">p<tspan x="253.848px 261.814px 269.026px 276.991px 280.479px 288.445px 295.657px 298.542px 306.508px 314.473px 318.707px 330.384px 333.872px 341.085px 346.058px" y="82.383px 82.383px 82.383px 82.383px 82.383px 82.383px 82.383px 82.383px 82.383px 82.383px 82.383px 82.383px 82.383px 82.383px 82.383px">asajes de micro</tspan></text></svg>