<svg viewBox="0 0 249 52" xmlns="http://www.w3.org/2000/svg" xml:space="preserve" style="fill-rule:evenodd;clip-rule:evenodd;stroke-linejoin:round;stroke-miterlimit:2"><path style="fill:none" d="M0 0h512v512H0z" transform="scale(.48564 .10144)"/><path d="M248.646 25.968C248.646 11.636 237.011 0 222.679 0H25.968C11.636 0 0 11.636 0 25.968s11.636 25.967 25.968 25.967h196.711c14.332 0 25.967-11.635 25.967-25.967z" style="fill:url(#a)" transform="rotate(.061)"/><path d="M83.71 179.427c2.144 0 3.808.516 4.992 1.548 1.184 1.032 1.776 2.484 1.776 4.356 0 1.984-.592 3.524-1.776 4.62-1.184 1.096-2.848 1.644-4.992 1.644h-3v4.656h-4.392v-16.824h7.392zm-.216 8.664c.896 0 1.588-.224 2.076-.672.488-.448.732-1.096.732-1.944 0-.816-.244-1.444-.732-1.884-.488-.44-1.18-.66-2.076-.66H80.71v5.16h2.784zM103.726 196.251l-1.152-2.976h-7.272l-1.176 2.976h-4.512l7.224-16.824h4.512l7.056 16.824h-4.68zm-7.104-6.336h4.656l-2.304-6-2.352 6zM117.91 179.427c1.264 0 2.364.172 3.3.516.936.344 1.66.836 2.172 1.476.512.64.768 1.392.768 2.256 0 .88-.26 1.648-.78 2.304-.52.656-1.228 1.104-2.124 1.344 1.072.208 1.916.696 2.532 1.464.616.768.924 1.696.924 2.784 0 .944-.264 1.772-.792 2.484s-1.28 1.256-2.256 1.632c-.976.376-2.12.564-3.432.564h-8.304v-16.824h7.992zm-.24 6.696c.608 0 1.088-.148 1.44-.444.352-.296.528-.708.528-1.236 0-.512-.176-.908-.528-1.188-.352-.28-.832-.412-1.44-.396h-3.36v3.264h3.36zm0 6.72c.768 0 1.376-.16 1.824-.48.448-.32.672-.768.672-1.344 0-.528-.224-.948-.672-1.26-.448-.312-1.056-.46-1.824-.444h-3.36v3.528h3.36zM127.102 179.427h4.392v13.08h7.128v3.744h-11.52v-16.824zM148.63 179.163c1.712 0 3.26.376 4.644 1.128 1.384.752 2.472 1.784 3.264 3.096.792 1.312 1.188 2.784 1.188 4.416 0 1.648-.396 3.136-1.188 4.464a8.563 8.563 0 0 1-3.264 3.144c-1.384.768-2.932 1.152-4.644 1.152-1.712 0-3.26-.38-4.644-1.14a8.448 8.448 0 0 1-3.264-3.144c-.792-1.336-1.188-2.828-1.188-4.476 0-1.632.396-3.104 1.188-4.416.792-1.312 1.88-2.344 3.264-3.096 1.384-.752 2.932-1.128 4.644-1.128zm.048 3.72c-.832 0-1.604.216-2.316.648a4.668 4.668 0 0 0-1.692 1.788 5.137 5.137 0 0 0-.624 2.508c0 .928.212 1.772.636 2.532.424.76.988 1.36 1.692 1.8.704.44 1.472.66 2.304.66.832 0 1.596-.22 2.292-.66a4.641 4.641 0 0 0 1.644-1.8c.4-.76.6-1.604.6-2.532 0-.912-.2-1.748-.6-2.508a4.552 4.552 0 0 0-1.644-1.788 4.262 4.262 0 0 0-2.292-.648zM177.406 185.139a6.272 6.272 0 0 0-1.944-1.644c-.752-.408-1.496-.612-2.232-.612-.848 0-1.62.212-2.316.636a4.506 4.506 0 0 0-1.644 1.752c-.4.744-.6 1.572-.6 2.484 0 .912.2 1.74.6 2.484.4.744.948 1.328 1.644 1.752a4.365 4.365 0 0 0 2.316.636c.688 0 1.408-.176 2.16-.528a6.846 6.846 0 0 0 2.016-1.44l2.568 2.76a10.27 10.27 0 0 1-3.252 2.292c-1.256.568-2.5.852-3.732.852-1.664 0-3.168-.384-4.512-1.152a8.418 8.418 0 0 1-3.168-3.144c-.768-1.328-1.152-2.816-1.152-4.464 0-1.632.392-3.104 1.176-4.416a8.4 8.4 0 0 1 3.228-3.096c1.368-.752 2.9-1.128 4.596-1.128 1.248 0 2.48.26 3.696.78 1.216.52 2.248 1.228 3.096 2.124l-2.544 3.072zM194.014 196.251l-1.152-2.976h-7.272l-1.176 2.976h-4.512l7.224-16.824h4.512l7.056 16.824h-4.68zm-7.104-6.336h4.656l-2.304-6-2.352 6zM199.534 179.427h14.448v2.88l-8.88 10.416h9.024v3.528h-14.904v-2.856l8.88-10.44h-8.568v-3.528zM224.446 179.163c1.712 0 3.26.376 4.644 1.128 1.384.752 2.472 1.784 3.264 3.096.792 1.312 1.188 2.784 1.188 4.416 0 1.648-.396 3.136-1.188 4.464a8.563 8.563 0 0 1-3.264 3.144c-1.384.768-2.932 1.152-4.644 1.152-1.712 0-3.26-.38-4.644-1.14a8.448 8.448 0 0 1-3.264-3.144c-.792-1.336-1.188-2.828-1.188-4.476 0-1.632.396-3.104 1.188-4.416.792-1.312 1.88-2.344 3.264-3.096 1.384-.752 2.932-1.128 4.644-1.128zm.048 3.72c-.832 0-1.604.216-2.316.648a4.668 4.668 0 0 0-1.692 1.788 5.137 5.137 0 0 0-.624 2.508c0 .928.212 1.772.636 2.532.424.76.988 1.36 1.692 1.8.704.44 1.472.66 2.304.66.832 0 1.596-.22 2.292-.66a4.641 4.641 0 0 0 1.644-1.8c.4-.76.6-1.604.6-2.532 0-.912-.2-1.748-.6-2.508a4.552 4.552 0 0 0-1.644-1.788 4.262 4.262 0 0 0-2.292-.648zM245.83 196.251l-2.448-4.656h-3.264v4.656h-4.392v-16.824h7.56c2.224 0 3.948.516 5.172 1.548 1.224 1.032 1.836 2.484 1.836 4.356 0 1.264-.256 2.356-.768 3.276-.512.92-1.256 1.636-2.232 2.148l3.504 5.496h-4.968zm-5.712-8.16h3.192c.896 0 1.588-.224 2.076-.672.488-.448.732-1.096.732-1.944 0-.816-.244-1.444-.732-1.884-.488-.44-1.18-.66-2.076-.66h-3.192v5.16zM253.102 179.427h4.392v13.08h7.128v3.744h-11.52v-16.824zM279.046 196.251l-1.152-2.976h-7.272l-1.176 2.976h-4.512l7.224-16.824h4.512l7.056 16.824h-4.68zm-7.104-6.336h4.656l-2.304-6-2.352 6z" style="fill:#fff;fill-rule:nonzero" transform="matrix(1 0 0 1 -55.699 -161.895)"/><defs><linearGradient id="a" x1="0" y1="0" x2="1" y2="0" gradientUnits="userSpaceOnUse" gradientTransform="matrix(-8.35368 -71.4677 14.9276 -1.74485 86.25 71.468)"><stop offset="0" style="stop-color:#68529a;stop-opacity:1"/><stop offset="1" style="stop-color:#f31d80;stop-opacity:1"/></linearGradient></defs></svg>