<svg viewBox="0 0 463 130" xmlns="http://www.w3.org/2000/svg" xml:space="preserve" style="fill-rule:evenodd;clip-rule:evenodd;stroke-linejoin:round;stroke-miterlimit:2"><path d="M41.789 10.369a11.275 11.275 0 0 0-1.004-3.584c-1.055-2.264-2.833-4.206-5.05-5.399C34.066.487 32.171.024 30.275.001a12.213 12.213 0 0 0-2.84.296c-.872.198-1.873.465-2.62.96-.452.299-.972.523-1.452.777-.499.265-.998.53-1.496.797a342.912 342.912 0 0 0-8.89 4.937l-.326.189c-.024.014-.047.028-.072.041-.591.34-1.182.684-1.771 1.029-.854.499-1.784 1.109-1.986 2.069-.151.727.179 1.486.683 2.037.505.549 1.168.927 1.819 1.295l2.056 1.165c.137.056.272.121.406.193 2.112 1.12 4.162 2.344 6.538 3.695l.094.054-.039.022.001.001 1.245.705c1.746.988 3.516 1.986 5.459 2.503a11.322 11.322 0 0 0 2.186.355c3.032.2 6.148-.774 8.464-2.728.31-.261.605-.54.884-.833.016-.017.034-.034.049-.052 2.279-2.425 3.47-5.84 3.122-9.139zm-20.323 1.147c.024-.011.046-.024.065-.034.011-.011.021-.015.031-.021 2.077-1.165 3.854-2.206 5.637-3.157l.062-.031.791-.413c1.979-1.023 4.133-.542 5.383 1.068 1.25 1.604 1.255 3.749.02 5.314a4.158 4.158 0 0 1-3.275 1.587c-.376 0-.758-.051-1.136-.152a4.449 4.449 0 0 1-.981-.388l-.257-.138c-1.9-1.016-3.762-2.118-5.872-3.324l-.057-.033-.449-.256.038-.022z" style="fill:#1f155b;fill-rule:nonzero" transform="translate(.001) scale(2.75022)"/><path d="M32.343 17.988c-.504-.549-1.167-.928-1.818-1.297a743.67 743.67 0 0 1-1.213-.686l-.235-.133-.603-.342-.669-.379-5.871-3.324-.057-.033-.411-.232-1.244-.704c-1.744-.989-3.516-1.988-5.458-2.504a11.288 11.288 0 0 0-2.113-.351l-.072-.005c-3.032-.201-6.148.775-8.465 2.729C1.233 13.156-.333 17.028.059 20.751c.13 1.241.477 2.452 1.003 3.583a11.925 11.925 0 0 0 2.187 3.203 11.46 11.46 0 0 0 2.865 2.198c1.661.894 3.546 1.356 5.434 1.385h.026a12.614 12.614 0 0 0 1.175-.043 11.823 11.823 0 0 0 1.663-.255c.872-.197 1.873-.463 2.622-.959.451-.298.972-.524 1.451-.777l1.496-.797a497.03 497.03 0 0 0 1.559-.841v-.006l.163-.092a2.684 2.684 0 0 0-.142-.071c2.068-1.16 3.839-2.199 5.616-3.145l.062-.031.66-.347c.044-.021.087-.044.13-.067.284-.148.574-.263.863-.349l.307-.178.071-.041c.592-.34 1.182-.683 1.771-1.027.852-.499 1.784-1.109 1.984-2.069.153-.728-.177-1.488-.682-2.037zM8.392 16.879c1.054-1.328 2.759-1.88 4.413-1.436.192.05.384.116.575.196.136.056.272.121.406.193 2.099 1.112 4.137 2.329 6.497 3.672l.135.077.001.001-.039.022a.674.674 0 0 1-.064.034.113.113 0 0 1-.031.021c-2.077 1.164-3.854 2.207-5.636 3.158a.708.708 0 0 0-.062.03c-.212.111-.423.22-.633.331l-.158.083c-.283.146-.57.262-.858.348a4.451 4.451 0 0 1-1.437.185 4.079 4.079 0 0 1-3.088-1.601c-1.25-1.604-1.256-3.751-.021-5.314z" style="fill:#047f74;fill-rule:nonzero" transform="translate(.001) scale(2.75022)"/><path d="M41.767 26.198a11.263 11.263 0 0 0-1.004-3.582 12.005 12.005 0 0 0-2.145-3.161 11.482 11.482 0 0 0-2.907-2.24c-1.667-.899-3.562-1.361-5.46-1.385l-.071-.001a13.218 13.218 0 0 0-1.103.043c-.559.046-1.115.132-1.664.256-.872.198-1.873.464-2.621.96-.452.297-.971.523-1.451.777a306.98 306.98 0 0 0-2.923 1.565l-.039.022a1.49 1.49 0 0 0-.055.03c-.014.006-.027.014-.041.022a318.848 318.848 0 0 0-7.328 4.095l-.017.01-.321.185-.048.028c-.596.342-1.191.687-1.783 1.034-.854.5-1.785 1.109-1.986 2.07-.151.727.177 1.487.683 2.036.504.55 1.167.928 1.819 1.296l1.212.687.235.133.506.287.138.078c.174.067.347.147.517.238 2.132 1.13 4.202 2.367 6.609 3.736l.024.013-.055.031 1.115.631c1.746.989 3.516 1.987 5.459 2.505.756.2 1.534.321 2.315.361.016.003.032.003.048.004 2.976.151 6.015-.824 8.287-2.74 2.88-2.428 4.446-6.3 4.055-10.024zm-8.334 3.873c-1.028 1.296-2.676 1.853-4.291 1.465l-.12-.029a4.464 4.464 0 0 1-.983-.388c-2.099-1.115-4.137-2.331-6.499-3.674l-.133-.076-.001-.001a1.9 1.9 0 0 1 .103-.056c.01-.01.021-.015.031-.021l.021-.011c2.068-1.161 3.839-2.2 5.616-3.146l.062-.031.66-.346.13-.068c.284-.148.574-.263.863-.349 1.718-.512 3.45.039 4.52 1.417 1.251 1.605 1.256 3.751.021 5.314z" style="fill:#ec4467;fill-rule:nonzero" transform="translate(.001) scale(2.75022)"/><path d="M31.842 33.222c-.676-.481-1.368-.93-2.056-1.39a17.005 17.005 0 0 1-.764-.353c-2.522-1.171-4.904-2.595-7.249-4.093l-.07-.035a1.709 1.709 0 0 0-.142-.071l-.021-.011v-.005c-1.456-.751-2.919-1.503-4.375-2.258-1.424-.747-2.92-1.224-4.548-1.212h-1.688c-3.033.164-5.467 1.594-7.657 3.536l-.023.029-.076.096C.109 31.304-.89 35.515 1.221 40.14c2.759 6.039 9.738 8.589 15.732 5.62 4.189-2.075 8.219-4.481 12.316-6.739.036-.023.072-.04.108-.063.006-.002.01-.006.016-.009h.006l.026-.015c.783-.444 1.588-.853 2.334-1.349 1.844-1.221 1.865-3.096.083-4.363zm-17.922 5.86c-1.978 1.021-4.133.536-5.383-1.068s-1.256-3.755-.021-5.314A4.16 4.16 0 0 1 12 31.118a4.237 4.237 0 0 1 1.255.247l.138.05c.174.068.347.148.517.238 2.139 1.134 4.216 2.376 6.633 3.75l-.024.014c-.011.005-.02.011-.03.017a1.898 1.898 0 0 0-.08.046c-2.413 1.349-4.418 2.534-6.489 3.602z" style="fill:#fe9b03;fill-rule:nonzero" transform="translate(.001) scale(2.75022)"/><path d="M68.298 13.916h-4.699L59.3 24.976 55 13.916h-4.7l-1.737 19.169h4.416l.916-11.363h.118l3.971 11.247h2.631l3.971-11.247h.117l.916 11.363h4.418l-1.739-19.169zM80.724 13.567c-5.333 0-9.773 4.322-9.773 9.922 0 5.6 4.041 9.945 9.773 9.945 5.569 0 9.751-4.345 9.751-9.945 0-5.6-4.37-9.922-9.751-9.922zm0 15.637c-3.618 0-5.004-2.858-5.004-5.715 0-2.859 1.598-5.717 5.004-5.717 3.431 0 4.981 2.858 4.981 5.717 0 2.857-1.457 5.715-4.981 5.715zM108.706 13.916H92.751v3.833h8.224L91.39 33.085h16.681v-3.834h-8.976l9.611-15.335zM119.77 25.162c2.372-.744 3.969-2.672 3.969-5.553 0-3.765-2.724-5.693-6.319-5.693h-6.932v19.169h4.418v-7.574l5.921 7.574h5.615l-6.672-7.923zm-4.347-2.742h-.517V17.4h.517c1.668 0 3.664.117 3.664 2.511 0 2.392-1.996 2.509-3.664 2.509zM138.399 17.749v-3.833h-11.09v19.169h11.09v-3.834h-6.672v-3.857h6.39v-3.833h-6.39v-3.812h6.672zM150.122 22.024c-2.209-.929-4.041-1.696-4.041-2.765 0-1.045.798-1.719 2.302-1.719 1.997 0 3.923 1.325 3.923 1.325l1.786-3.486s-2.49-1.812-6.014-1.812c-3.126 0-6.321 2.277-6.321 5.855 0 1.998 1.363 3.787 3.688 4.926 2.303 1.139 4.372 1.767 4.372 3.161 0 1.788-1.833 1.882-2.797 1.882-2.161 0-4.746-2.162-4.746-2.162l-2.209 3.672s2.749 2.533 7.284 2.533c3.783 0 7.306-1.604 7.306-6.182 0-2.509-2.372-4.322-4.533-5.228zM154.373 13.916v3.833h4.605v15.336h4.416V17.749H168v-3.833h-13.627z" style="fill:#fff;fill-rule:nonzero" transform="translate(.001) scale(2.75022)"/></svg>